<?xml version="1.0" standalone="no"?>
<!DOCTYPE svg PUBLIC "-//W3C//DTD SVG 20010904//EN"
 "http://www.w3.org/TR/2001/REC-SVG-20010904/DTD/svg10.dtd">
<svg version="1.0" xmlns="http://www.w3.org/2000/svg"
 width="3352.000000pt" height="3352.000000pt" viewBox="0 0 3352.000000 3352.000000"
 preserveAspectRatio="xMidYMid meet">
<metadata>
Created by potrace 1.14, written by Peter Selinger 2001-2017
</metadata>
<g transform="translate(0.000000,3352.000000) scale(0.100000,-0.100000)"
fill="#000000" stroke="none">
<path d="M31458 19575 c-2 -2 -46 -5 -98 -8 -52 -4 -120 -11 -150 -16 -30 -6
-68 -13 -85 -16 -16 -2 -40 -7 -52 -10 -13 -3 -32 -7 -42 -9 -81 -18 -226 -64
-311 -99 -14 -6 -28 -11 -32 -12 -5 -2 -11 -4 -15 -5 -5 -1 -11 -2 -15 -1 -5
0 -8 -3 -8 -9 0 -5 -4 -10 -10 -10 -16 0 -162 -72 -206 -102 -23 -15 -45 -28
-48 -28 -6 0 -64 -41 -140 -99 -39 -29 -226 -221 -226 -231 0 -5 -3 -10 -7
-10 -5 0 -24 -25 -43 -55 -19 -30 -38 -54 -42 -55 -5 0 -8 -5 -8 -10 0 -6 -8
-23 -19 -38 -28 -41 -51 -81 -52 -89 -1 -5 -10 -20 -20 -35 -10 -14 -19 -29
-19 -32 0 -3 -18 -42 -39 -86 -22 -44 -37 -80 -34 -80 3 0 1 -6 -4 -12 -11
-14 -71 -187 -76 -216 -1 -9 -5 -21 -9 -27 -3 -5 -9 -30 -14 -55 -4 -25 -8
-47 -9 -50 -6 -26 -26 -160 -31 -210 -5 -51 -5 -276 0 -340 8 -103 21 -187 42
-280 3 -14 9 -41 13 -60 5 -19 20 -71 36 -115 15 -44 28 -84 29 -90 9 -39 124
-271 173 -348 100 -154 205 -275 353 -406 39 -35 215 -158 215 -151 0 3 14 -5
30 -16 80 -57 337 -164 455 -190 19 -4 40 -9 45 -11 29 -9 207 -43 250 -47 28
-4 68 -9 90 -12 91 -12 403 -6 495 11 14 2 44 7 67 10 72 10 274 62 367 95 76
27 222 94 325 149 49 27 186 124 246 175 80 69 140 129 203 206 94 114 115
144 177 255 49 87 59 107 103 206 25 55 93 249 87 249 -2 0 2 17 9 38 7 20 19
71 26 112 7 41 14 84 16 95 15 81 27 425 15 449 -2 5 -5 25 -7 45 -8 95 -41
263 -64 331 -27 80 -64 180 -80 215 -10 22 -28 65 -41 95 -13 30 -36 77 -51
103 -15 26 -28 50 -28 53 0 14 -155 235 -202 289 -141 158 -297 276 -496 373
-96 47 -280 120 -342 137 -71 18 -180 45 -200 49 -14 2 -36 7 -50 10 -14 3
-45 8 -70 10 -25 3 -67 8 -95 11 -50 6 -273 14 -277 10z m297 -479 c139 -18
305 -56 380 -87 17 -7 33 -13 38 -14 4 -2 9 -4 12 -5 3 -1 8 -3 13 -4 42 -10
223 -119 302 -181 62 -50 187 -186 216 -234 10 -17 22 -31 26 -31 4 0 8 -5 8
-12 0 -6 6 -19 14 -27 27 -30 105 -196 134 -286 60 -179 77 -303 76 -540 0
-182 -6 -260 -24 -340 -7 -27 -13 -59 -16 -70 -12 -60 -17 -81 -22 -90 -4 -5
-7 -17 -9 -25 -4 -30 -71 -186 -102 -240 -18 -30 -35 -63 -38 -72 -3 -10 -9
-18 -14 -18 -5 0 -15 -12 -23 -28 -31 -61 -169 -202 -266 -273 -90 -66 -221
-139 -247 -139 -7 0 -13 -4 -13 -10 0 -5 -10 -10 -23 -10 -13 0 -27 -4 -32 -9
-17 -15 -189 -64 -269 -77 -21 -3 -48 -7 -60 -10 -115 -22 -434 -22 -570 1
-17 3 -42 7 -56 9 -14 2 -56 12 -95 21 -38 9 -77 18 -85 20 -63 13 -320 132
-320 147 0 5 -6 8 -12 8 -13 0 -28 11 -126 91 -89 72 -182 169 -182 189 0 5
-4 10 -8 10 -11 0 -79 105 -116 180 -16 30 -33 63 -38 73 -33 64 -86 252 -104
367 -24 159 -24 515 1 600 2 8 7 29 9 45 13 73 36 161 56 210 70 174 106 241
189 352 66 88 123 149 194 208 27 22 55 46 62 53 7 6 16 12 19 12 6 0 74 44
93 60 7 6 15 10 18 10 3 0 35 15 72 33 38 17 102 43 143 56 41 13 82 26 90 29
19 6 20 7 115 26 44 8 114 18 155 22 41 3 76 7 78 9 5 4 310 -3 357 -9z"/>
<path d="M30797 18680 c-10 -4 -13 -187 -12 -970 l0 -965 206 -3 206 -2 2 87
c1 49 2 93 2 98 -5 119 -4 295 2 295 4 0 4 8 0 18 -5 9 -7 35 -7 57 1 22 2 56
3 75 l1 36 169 0 c94 0 169 -2 168 -5 -1 -5 143 -297 183 -371 4 -8 14 -28 21
-45 7 -16 19 -37 25 -45 7 -8 13 -18 13 -23 1 -14 76 -162 86 -169 6 -5 26 -8
45 -7 56 1 342 0 377 -1 32 -1 33 0 21 27 -7 15 -25 49 -40 74 -16 25 -28 51
-28 58 0 6 -5 11 -11 11 -5 0 -8 4 -5 9 3 5 -1 14 -9 21 -8 7 -13 16 -10 20 3
5 1 11 -4 15 -5 3 -16 18 -24 33 -7 15 -27 52 -44 82 -16 30 -56 105 -88 165
-32 61 -65 121 -74 135 -9 14 -24 42 -34 63 -16 36 -16 38 1 44 48 18 178 111
227 164 58 64 108 157 120 224 16 96 20 144 19 205 -2 77 -13 160 -22 174 -3
6 -8 17 -9 24 -7 31 -11 40 -32 82 -23 45 -86 129 -106 142 -5 3 -25 20 -42
36 -28 24 -130 82 -155 88 -5 1 -9 2 -10 4 -2 1 -11 3 -20 6 -10 2 -24 6 -30
7 -44 12 -68 17 -108 23 -55 7 -955 11 -973 4z m896 -374 c97 -16 176 -71 208
-146 23 -53 18 -174 -11 -230 -34 -69 -111 -120 -205 -135 -16 -3 -43 -8 -60
-12 -16 -3 -117 -7 -224 -7 -186 -2 -194 -1 -201 19 -4 11 -4 28 1 37 5 9 6
19 2 21 -9 6 -9 439 0 453 6 11 430 11 490 0z"/>
<path d="M15050 19161 c-145 -42 -287 -157 -351 -286 -101 -206 -61 -464 96
-620 93 -92 159 -131 266 -158 70 -18 266 -14 285 6 4 4 14 7 22 7 18 0 83 30
100 47 7 7 18 13 24 13 6 0 44 33 84 74 49 51 83 96 106 143 18 37 34 73 35
78 16 64 21 115 18 195 -5 139 -42 231 -134 332 -71 77 -141 126 -226 157 -78
30 -243 35 -325 12z"/>
<path d="M9 18988 c-1 -2 -2 -1114 -2 -2471 -2 -2430 -1 -2524 27 -2479 3 5
23 6 46 2 23 -4 43 -3 46 2 3 5 12 4 20 -3 8 -6 14 -7 14 -2 0 5 20 7 48 3 26
-3 59 -3 72 0 14 4 37 3 52 -1 16 -4 30 -3 34 2 4 6 11 6 20 -2 11 -9 14 -9
14 0 0 7 4 10 9 7 5 -4 33 -6 63 -6 29 0 61 0 71 0 9 0 25 0 35 0 9 0 42 -1
72 -1 30 0 61 0 68 0 28 2 40 2 102 0 l65 -2 3 938 c1 516 4 940 6 943 8 8
146 7 146 -1 0 -5 4 -5 10 -2 5 3 33 6 62 6 132 0 197 0 245 1 28 0 56 -3 62
-7 6 -3 11 -3 11 2 0 4 29 8 65 8 36 0 65 -4 65 -8 0 -5 5 -5 10 -2 6 4 36 6
68 6 31 -1 64 -1 72 -1 8 0 50 1 93 2 42 2 77 -1 77 -5 0 -5 4 -5 10 -2 14 9
155 9 169 1 6 -4 11 -4 11 1 0 4 29 8 65 8 36 0 65 -4 65 -8 0 -5 5 -5 10 -2
6 4 36 6 68 6 31 -1 64 -1 72 -1 8 0 50 1 93 2 42 2 77 1 77 -2 0 -3 24 -4 52
-2 91 4 169 3 179 -3 5 -4 9 -3 9 2 0 4 39 8 86 8 l87 0 -1 398 c0 219 -3 401
-5 403 -3 3 -462 5 -1021 5 l-1016 0 0 733 0 733 1155 0 c635 0 1158 2 1161 5
4 5 7 486 4 753 l0 35 -1600 0 c-880 0 -1600 -1 -1601 -2z"/>
<path d="M16630 17928 c-1 -1287 -1 -3466 0 -3709 l0 -177 25 -4 c14 -3 28 -1
31 4 3 5 12 4 20 -3 11 -9 14 -9 14 0 0 7 4 10 9 7 5 -4 33 -6 63 -6 29 0 61
0 71 0 9 0 25 0 35 0 9 0 42 -1 72 -1 30 0 61 0 68 0 23 2 37 2 107 2 101 -1
108 -1 130 -5 11 -1 31 0 45 4 14 4 37 3 52 -1 16 -4 30 -3 34 2 3 6 11 5 20
-2 8 -6 14 -7 14 -2 0 5 16 7 35 5 l35 -4 0 1036 0 1036 1195 0 c949 0 1195
-3 1196 -12 1 -7 2 -470 3 -1030 0 -559 4 -1019 7 -1022 3 -4 46 -6 95 -6 121
0 126 0 149 -4 11 -1 31 0 45 4 14 4 37 3 52 -1 16 -4 30 -3 34 2 3 6 11 5 20
-2 8 -6 14 -7 14 -2 0 5 20 7 48 3 26 -3 59 -3 72 0 14 4 37 3 52 -1 16 -4 30
-3 34 2 4 6 11 6 20 -2 8 -6 14 -7 14 -2 0 5 20 7 48 3 26 -3 59 -3 72 0 14 4
37 3 52 -1 17 -5 30 -3 36 4 6 8 10 959 10 2480 l-1 2467 -436 -2 -436 -3 0
-1035 0 -1035 -1197 -3 -1198 -2 0 1040 0 1040 -440 0 -440 0 0 -1062z"/>
<path d="M25770 16516 l0 -2474 34 -4 c19 -2 32 0 29 5 -3 5 5 6 18 1 13 -4
33 -6 44 -5 27 3 31 3 98 1 32 -2 60 0 63 3 3 3 19 1 35 -3 17 -5 31 -5 35 1
4 6 11 6 20 -2 8 -6 14 -8 14 -3 0 5 24 8 52 6 87 -4 162 -2 169 6 4 4 19 39
34 77 44 112 41 109 73 87 69 -47 254 -131 372 -168 149 -48 362 -88 445 -84
17 1 37 2 45 1 46 -3 261 6 310 13 19 3 67 10 105 15 39 6 79 13 90 15 46 10
121 28 135 33 8 3 20 7 25 8 86 21 295 114 371 165 25 16 49 30 55 30 5 0 9 5
9 10 0 6 7 10 15 10 8 0 15 4 15 8 0 4 12 15 28 24 40 24 192 174 251 248 28
36 56 70 61 77 37 46 152 258 152 280 0 4 4 13 8 19 30 35 110 316 126 439 3
22 7 51 10 65 24 135 24 558 0 680 -3 14 -7 43 -10 65 -4 43 -7 56 -31 158
-35 146 -94 295 -180 448 -27 48 -129 186 -185 249 -64 73 -240 230 -257 230
-4 0 -16 9 -27 19 -21 20 -256 143 -256 135 0 -3 -10 1 -22 8 -13 6 -27 13
-33 15 -5 1 -47 15 -92 31 -46 16 -83 28 -83 26 0 -2 -11 1 -26 6 -14 6 -37
12 -52 15 -15 3 -38 7 -52 10 -30 6 -63 12 -150 25 -65 9 -436 6 -520 -5 -99
-13 -228 -37 -276 -51 -28 -8 -60 -16 -70 -19 -11 -2 -44 -13 -74 -25 -30 -12
-62 -24 -70 -26 -14 -5 -15 83 -15 785 l0 791 -432 0 -433 0 0 -2474z m1657
349 c27 -4 60 -9 75 -10 15 -2 46 -9 70 -15 24 -7 50 -13 58 -15 53 -11 191
-80 255 -129 55 -41 153 -144 160 -167 4 -11 10 -19 15 -19 5 0 31 -46 58
-102 49 -99 97 -252 108 -340 3 -24 8 -54 10 -68 21 -142 22 -451 0 -557 -3
-15 -7 -39 -10 -53 -2 -14 -9 -45 -16 -70 -7 -25 -13 -50 -14 -57 -1 -7 -5
-16 -9 -19 -4 -4 -7 -15 -7 -24 0 -29 -84 -184 -133 -246 -76 -96 -173 -172
-287 -226 -75 -36 -183 -74 -230 -82 -14 -3 -25 -5 -25 -6 0 -2 -21 -5 -95
-15 -64 -9 -265 -10 -331 -1 -80 9 -158 25 -174 34 -5 4 -18 8 -27 9 -55 9
-237 105 -239 127 -1 6 -2 445 -3 974 -1 954 -1 964 19 975 25 14 143 57 170
61 11 2 43 9 70 16 55 13 84 17 195 26 41 4 76 7 77 8 6 5 220 -3 260 -9z"/>
<path d="M9417 17544 c-2 -3 -26 -7 -53 -10 -84 -10 -190 -32 -266 -55 -40
-13 -76 -23 -80 -23 -3 -1 -10 -4 -14 -8 -4 -5 -16 -8 -26 -8 -10 0 -26 -4
-36 -9 -9 -5 -57 -28 -107 -51 -49 -23 -124 -61 -166 -86 -42 -24 -78 -44 -81
-44 -3 0 -16 24 -28 53 -41 96 -70 162 -79 177 -7 13 -53 15 -309 16 -206 0
-302 -3 -305 -10 -2 -6 -3 -783 -3 -1726 l1 -1715 35 -5 c19 -3 46 -3 60 0 14
4 37 3 52 -1 16 -4 30 -3 34 2 4 6 11 6 20 -2 11 -9 14 -9 14 0 0 7 4 10 9 7
5 -4 33 -6 63 -6 29 0 61 0 71 0 9 0 25 0 35 0 9 0 42 -1 72 -1 30 0 61 0 68
0 53 4 201 2 255 -3 15 -1 27 1 27 5 0 4 8 5 18 2 16 -4 19 2 20 36 1 22 2 44
3 48 1 5 1 10 0 13 -5 12 -5 120 -1 120 3 0 5 29 5 65 0 36 -2 65 -5 65 -3 0
-4 26 -3 57 3 111 3 228 0 261 -2 17 -1 32 2 32 3 0 6 29 6 65 0 36 -2 65 -5
65 -3 0 -4 21 -2 47 2 27 3 55 3 63 0 8 0 53 0 100 1 47 0 92 0 100 -3 47 1
155 5 162 3 4 2 8 -3 8 -4 0 -7 28 -5 62 3 72 3 136 -1 226 -1 34 0 62 3 62 3
0 5 29 5 65 0 36 -2 65 -5 65 -3 0 -4 21 -2 47 2 27 3 55 3 63 0 8 0 53 0 100
1 47 0 92 0 100 -3 47 1 155 5 162 3 4 2 8 -3 8 -4 0 -7 28 -5 62 2 61 3 99 1
218 -1 30 0 60 1 65 1 6 3 19 4 30 1 15 16 25 64 41 34 12 64 22 65 22 1 0 13
3 27 6 30 7 78 16 105 21 11 2 20 4 20 5 0 2 63 9 140 15 101 9 225 11 225 5
0 -3 21 -5 47 -4 45 0 176 -17 238 -31 69 -16 201 -58 213 -67 6 -6 12 -8 12
-5 0 3 33 -12 73 -32 96 -49 108 -46 121 32 3 15 7 35 10 45 3 9 8 29 11 45
13 66 17 86 31 147 9 36 22 97 30 135 8 39 17 79 19 90 3 11 12 52 20 90 9 39
18 79 20 90 20 85 23 79 -57 110 -40 16 -76 30 -80 31 -5 1 -9 2 -10 4 -2 1
-10 3 -18 5 -8 2 -41 10 -73 19 -32 8 -75 18 -95 21 -21 3 -49 8 -62 11 -29 8
-397 14 -403 8z"/>
<path d="M12575 17542 c-1 -2 -36 -5 -76 -7 -129 -7 -190 -16 -359 -51 -109
-23 -220 -52 -270 -71 -8 -4 -17 -7 -20 -8 -37 -9 -142 -49 -254 -97 -76 -33
-142 -56 -145 -51 -4 4 -16 28 -26 53 -10 25 -33 77 -51 115 l-31 71 -304 -1
-304 0 -1 -1727 0 -1726 33 -4 c18 -2 33 -2 33 2 0 3 21 4 47 3 124 -5 164 -5
169 0 3 3 19 1 35 -3 17 -5 31 -5 35 1 4 6 11 6 20 -2 10 -8 14 -8 14 0 0 7 8
8 23 2 12 -5 30 -5 41 -2 10 4 39 4 65 1 25 -3 58 -3 71 0 14 4 37 3 52 -1 16
-4 30 -3 34 2 4 6 11 6 20 -2 8 -6 14 -8 14 -3 0 5 33 8 74 6 l75 -4 0 739 c0
406 1 988 1 1293 l0 555 113 38 c61 21 123 41 136 43 14 3 28 7 33 10 4 3 18
7 30 10 32 7 40 9 63 17 21 7 66 16 102 22 11 2 32 7 45 11 12 4 30 8 38 9 8
1 40 6 70 10 30 4 69 9 85 11 40 5 193 5 225 0 89 -13 118 -20 164 -37 109
-43 181 -107 241 -214 36 -65 85 -200 91 -250 2 -16 7 -41 11 -55 3 -14 7
-514 8 -1112 1 -598 4 -1091 8 -1094 3 -3 41 -6 84 -5 93 2 82 2 168 2 101 -1
108 -1 130 -5 11 -1 31 0 45 4 14 4 37 3 52 -1 16 -4 30 -3 34 2 3 6 11 5 20
-2 8 -6 14 -7 14 -2 0 5 20 7 48 3 26 -3 59 -3 72 0 14 4 37 3 53 -1 17 -5 27
-4 27 3 0 7 4 7 13 0 7 -6 18 -7 25 -3 8 4 24 6 38 3 18 -3 24 0 24 14 5 158
0 2085 -5 2154 -12 183 -24 282 -50 410 -3 14 -7 37 -10 51 -3 14 -16 66 -30
115 -60 209 -182 387 -370 540 -110 89 -280 160 -452 189 -18 3 -47 7 -63 10
-52 9 -339 23 -345 17z"/>
<path d="M3916 17490 c-6 -9 2 -2214 8 -2255 3 -22 8 -65 11 -95 3 -30 8 -64
10 -75 3 -11 7 -36 10 -55 7 -48 14 -88 26 -135 5 -22 12 -50 15 -63 25 -118
117 -351 177 -447 38 -62 157 -183 216 -220 208 -129 457 -188 791 -185 281 3
433 35 735 155 116 46 148 60 304 132 41 18 77 30 81 26 4 -4 26 -55 50 -113
24 -58 48 -111 53 -118 8 -9 75 -12 301 -10 l291 3 3 45 c1 25 2 70 1 100 -1
30 -1 62 0 70 1 8 1 31 0 50 -1 19 -1 42 0 50 0 8 0 40 0 70 -1 30 -1 62 0 70
1 8 1 31 0 50 -1 19 -1 42 0 50 0 8 0 40 0 70 -1 30 -1 62 0 70 1 8 1 31 0 50
-1 19 -1 41 0 48 0 6 0 48 0 92 0 44 0 88 0 98 1 9 1 46 0 82 0 36 0 72 0 80
1 8 1 44 0 80 0 36 0 72 0 80 1 8 1 44 0 80 0 36 0 72 0 80 1 8 1 44 0 80 0
36 0 72 0 80 1 8 1 44 0 80 0 36 0 72 0 80 1 8 1 44 0 80 0 36 0 72 0 80 1 8
1 44 0 80 0 36 0 72 0 80 1 8 0 51 0 95 -1 44 -1 87 0 95 1 8 1 31 0 50 -1 19
-1 42 0 50 0 8 0 40 0 70 -1 30 -1 62 0 70 1 8 1 31 0 50 -1 19 -1 42 0 50 0
8 0 40 0 70 -1 30 -1 62 0 70 1 8 1 31 0 50 -1 19 -1 42 0 50 0 8 0 40 0 70
-1 30 -1 62 0 70 1 8 1 31 0 50 -1 19 -1 42 0 50 0 8 0 40 0 70 -1 30 -1 61 0
68 2 30 3 40 2 82 -1 25 -1 60 -1 79 -1 19 -3 37 -5 40 -2 4 -192 6 -422 6
l-418 0 -1 -1285 c-1 -707 -2 -1291 -3 -1298 -1 -11 -186 -109 -221 -116 -8
-2 -28 -8 -45 -15 -49 -20 -208 -60 -261 -66 -27 -3 -65 -7 -84 -10 -76 -11
-248 -6 -324 10 -44 9 -106 30 -139 47 -61 30 -66 34 -114 78 -31 29 -93 121
-93 138 0 7 -5 12 -10 12 -6 0 -9 3 -8 8 1 4 -6 25 -16 47 -10 22 -19 49 -22
59 -2 10 -8 33 -13 50 -30 91 -32 194 -32 1254 0 595 -3 1083 -7 1083 -22 5
-844 4 -846 -1z"/>
<path d="M14759 17465 c0 -42 0 -3353 0 -3391 1 -27 5 -32 29 -36 15 -2 41 -1
57 2 17 4 40 3 52 -1 13 -5 25 -4 29 2 4 6 11 6 20 -2 10 -8 14 -8 14 0 0 7 8
8 23 2 12 -5 30 -5 41 -2 10 4 39 4 65 1 25 -3 58 -3 71 0 14 4 37 3 52 -1 16
-4 30 -3 34 2 4 6 11 6 20 -2 8 -6 14 -7 14 -2 0 5 20 7 48 3 26 -3 59 -3 72
0 14 3 42 3 63 -1 20 -3 39 -3 42 1 4 7 58 4 81 -4 39 -15 38 -63 39 1716 0
937 -1 1712 -3 1723 -4 21 -8 21 -433 21 l-429 -1 -1 -30z"/>
<path d="M21772 17490 c-9 -6 -7 -2115 2 -2215 9 -101 17 -173 22 -198 2 -12
7 -44 10 -72 4 -27 8 -53 11 -58 2 -4 6 -20 9 -35 2 -15 7 -38 11 -52 4 -14 8
-29 8 -35 1 -5 7 -30 14 -55 8 -25 14 -49 15 -55 1 -5 4 -14 7 -20 4 -5 12
-28 19 -50 24 -80 105 -251 146 -310 39 -56 144 -165 159 -165 3 0 21 -11 38
-24 62 -46 238 -122 327 -140 14 -3 34 -7 46 -10 12 -2 45 -7 75 -11 30 -4 57
-9 60 -11 10 -6 225 -17 289 -15 166 4 228 11 410 47 66 13 333 111 470 173
25 11 47 20 50 20 3 0 43 18 89 41 46 23 87 38 92 33 4 -4 30 -60 56 -123 l49
-115 297 -3 297 -2 1 22 c0 31 0 3409 0 3428 -1 14 -50 15 -418 14 -230 -1
-420 -2 -423 -3 -3 0 -5 -579 -4 -1287 0 -899 -3 -1289 -10 -1299 -13 -16
-189 -105 -209 -105 -7 0 -17 -4 -22 -8 -6 -5 -44 -18 -85 -30 -259 -74 -508
-86 -675 -31 -103 34 -116 42 -194 120 -56 56 -104 138 -137 235 -48 142 -47
118 -52 879 -2 396 -4 725 -4 730 2 68 1 509 -1 635 l-2 165 -418 0 c-230 1
-421 -2 -425 -5z"/>
</g>
</svg>
