<svg width="470" height="78" viewBox="0 0 470 78" fill="none" xmlns="http://www.w3.org/2000/svg">
<path d="M45.375 18.25H13.125V38.625H41.5V49.875H13.125V76H0.875V7.25H45.375V18.25ZM98 76.125H89.75L88.25 72.625C85.0833 74.125 82.375 75.25 80.125 76C77.9583 76.75 75.4583 77.125 72.625 77.125C65.375 77.125 60.625 75.0417 58.375 70.875C56.2083 66.625 55.125 61.4583 55.125 55.375V28H67V57C67 59.5833 67.625 61.875 68.875 63.875C70.125 65.875 72.4167 66.875 75.75 66.875C79.4167 66.875 82.9167 65.9167 86.25 64V28H98V76.125ZM110.008 28H118.508L120.008 31.5C124.424 28.6667 129.133 27.25 134.133 27.25C137.216 27.25 140.133 27.875 142.883 29.125L140.508 40L140.008 40.125C137.174 38.4583 133.758 37.625 129.758 37.625C127.008 37.625 124.383 38.0833 121.883 39V76H110.008V28ZM149.852 28H158.352L159.852 31.5C165.518 28.75 171.06 27.375 176.477 27.375C181.56 27.375 185.352 28.5 187.852 30.75C190.435 33 192.06 35.625 192.727 38.625C193.477 41.625 193.852 45 193.852 48.75V76H181.977V47.25C181.977 44.75 181.352 42.5 180.102 40.5C178.852 38.5 176.602 37.5 173.352 37.5C170.435 37.5 166.56 38.375 161.727 40.125V76H149.852V28ZM205.766 76V28H217.766V76H205.766ZM206.391 17.625C207.891 19.125 209.682 19.875 211.766 19.875C213.932 19.875 215.724 19.125 217.141 17.625C218.641 16.125 219.391 14.3333 219.391 12.25C219.391 10.0833 218.641 8.29167 217.141 6.875C215.724 5.375 213.932 4.625 211.766 4.625C209.682 4.625 207.891 5.375 206.391 6.875C204.891 8.29167 204.141 10.0833 204.141 12.25C204.141 14.3333 204.891 16.125 206.391 17.625ZM467.336 15.25C468.669 18.3333 469.336 21.7083 469.336 25.375C469.336 29.125 468.669 32.5417 467.336 35.625C466.086 38.7083 464.253 41.375 461.836 43.625C459.503 45.875 456.794 47.5833 453.711 48.75C450.628 49.9167 447.294 50.5 443.711 50.5C440.044 50.5 436.628 49.9167 433.461 48.75C430.378 47.5833 427.711 45.875 425.461 43.625C423.044 41.375 421.169 38.7083 419.836 35.625C418.586 32.5417 417.961 29.125 417.961 25.375C417.961 21.7083 418.586 18.3333 419.836 15.25C421.169 12.1667 423.044 9.45833 425.461 7.125C427.711 4.95833 430.378 3.29167 433.461 2.125C436.628 0.958336 440.044 0.375004 443.711 0.375004C447.294 0.375004 450.628 0.958336 453.711 2.125C456.794 3.29167 459.503 4.95833 461.836 7.125C464.253 9.45833 466.086 12.1667 467.336 15.25ZM458.336 40.125C462.003 36.5417 463.836 31.625 463.836 25.375C463.836 19.375 461.961 14.5 458.211 10.75C454.628 7.33334 449.794 5.625 443.711 5.625C437.628 5.625 432.794 7.33334 429.211 10.75C425.461 14.5 423.586 19.375 423.586 25.375C423.586 31.625 425.419 36.5417 429.086 40.125C432.753 43.625 437.628 45.375 443.711 45.375C449.794 45.375 454.669 43.625 458.336 40.125ZM451.586 14.125C453.253 15.625 454.086 17.5833 454.086 20C454.086 23.6667 452.336 26.1667 448.836 27.5L454.211 38.5H449.336L444.586 28.375H439.086V38.5H434.586V11.875H445.211C447.794 11.875 449.919 12.625 451.586 14.125ZM448.086 23.625C449.253 22.875 449.836 21.7083 449.836 20.125C449.836 18.875 449.419 17.875 448.586 17.125C447.753 16.375 446.586 16 445.086 16H439.086V24.75H443.836C445.503 24.75 446.919 24.375 448.086 23.625Z" fill="#393939"/>
<path d="M277.234 36.125V7.25H289.359V76H277.234V47.25H243.984V76H231.734V7.25H243.984V36.125H277.234ZM345.949 76.125H337.699L336.199 72.625C333.033 74.125 330.324 75.25 328.074 76C325.908 76.75 323.408 77.125 320.574 77.125C313.324 77.125 308.574 75.0417 306.324 70.875C304.158 66.625 303.074 61.4583 303.074 55.375V28H314.949V57C314.949 59.5833 315.574 61.875 316.824 63.875C318.074 65.875 320.366 66.875 323.699 66.875C327.366 66.875 330.866 65.9167 334.199 64V28H345.949V76.125ZM358.707 76V7.25H370.707V29.25C373.707 27.9167 377.499 27.25 382.082 27.25C385.915 27.25 389.582 28.0833 393.082 29.75C396.665 31.4167 399.624 34.125 401.957 37.875C404.29 41.5417 405.457 46.2917 405.457 52.125C405.457 59.875 403.29 66 398.957 70.5C394.707 74.9167 388.707 77.125 380.957 77.125C376.707 77.125 372.457 75.875 368.207 73.375L367.207 76H358.707ZM393.207 52.75C393.207 42 388.582 36.625 379.332 36.625C376.082 36.625 373.207 37.1667 370.707 38.25V65.375C373.04 66.9583 375.79 67.75 378.957 67.75C383.207 67.75 386.624 66.5833 389.207 64.25C391.874 61.8333 393.207 58 393.207 52.75Z" fill="#3AA39F"/>
</svg>
