<svg width="422" height="71" viewBox="0 0 422 71" fill="none" xmlns="http://www.w3.org/2000/svg">
<path d="M40.1375 17.025H11.1125V35.3625H36.65V45.4875H11.1125V69H0.0874999V7.125H40.1375V17.025ZM87.5 69.1125H80.075L78.725 65.9625C75.875 67.3125 73.4375 68.325 71.4125 69C69.4625 69.675 67.2125 70.0125 64.6625 70.0125C58.1375 70.0125 53.8625 68.1375 51.8375 64.3875C49.8875 60.5625 48.9125 55.9125 48.9125 50.4375V25.8H59.6V51.9C59.6 54.225 60.1625 56.2875 61.2875 58.0875C62.4125 59.8875 64.475 60.7875 67.475 60.7875C70.775 60.7875 73.925 59.925 76.925 58.2V25.8H87.5V69.1125ZM98.307 25.8H105.957L107.307 28.95C111.282 26.4 115.52 25.125 120.02 25.125C122.795 25.125 125.42 25.6875 127.895 26.8125L125.757 36.6L125.307 36.7125C122.757 35.2125 119.682 34.4625 116.082 34.4625C113.607 34.4625 111.245 34.875 108.995 35.7V69H98.307V25.8ZM134.166 25.8H141.816L143.166 28.95C148.266 26.475 153.254 25.2375 158.129 25.2375C162.704 25.2375 166.116 26.25 168.366 28.275C170.691 30.3 172.154 32.6625 172.754 35.3625C173.429 38.0625 173.766 41.1 173.766 44.475V69H163.079V43.125C163.079 40.875 162.516 38.85 161.391 37.05C160.266 35.25 158.241 34.35 155.316 34.35C152.691 34.35 149.204 35.1375 144.854 36.7125V69H134.166V25.8ZM184.489 69V25.8H195.289V69H184.489ZM185.052 16.4625C186.402 17.8125 188.014 18.4875 189.889 18.4875C191.839 18.4875 193.452 17.8125 194.727 16.4625C196.077 15.1125 196.752 13.5 196.752 11.625C196.752 9.675 196.077 8.0625 194.727 6.7875C193.452 5.4375 191.839 4.7625 189.889 4.7625C188.014 4.7625 186.402 5.4375 185.052 6.7875C183.702 8.0625 183.027 9.675 183.027 11.625C183.027 13.5 183.702 15.1125 185.052 16.4625ZM419.902 14.325C421.102 17.1 421.702 20.1375 421.702 23.4375C421.702 26.8125 421.102 29.8875 419.902 32.6625C418.777 35.4375 417.127 37.8375 414.952 39.8625C412.852 41.8875 410.415 43.425 407.64 44.475C404.865 45.525 401.865 46.05 398.64 46.05C395.34 46.05 392.265 45.525 389.415 44.475C386.64 43.425 384.24 41.8875 382.215 39.8625C380.04 37.8375 378.352 35.4375 377.152 32.6625C376.027 29.8875 375.465 26.8125 375.465 23.4375C375.465 20.1375 376.027 17.1 377.152 14.325C378.352 11.55 380.04 9.1125 382.215 7.0125C384.24 5.0625 386.64 3.5625 389.415 2.5125C392.265 1.4625 395.34 0.937503 398.64 0.937503C401.865 0.937503 404.865 1.4625 407.64 2.5125C410.415 3.5625 412.852 5.0625 414.952 7.0125C417.127 9.1125 418.777 11.55 419.902 14.325ZM411.802 36.7125C415.102 33.4875 416.752 29.0625 416.752 23.4375C416.752 18.0375 415.065 13.65 411.69 10.275C408.465 7.2 404.115 5.6625 398.64 5.6625C393.165 5.6625 388.815 7.2 385.59 10.275C382.215 13.65 380.527 18.0375 380.527 23.4375C380.527 29.0625 382.177 33.4875 385.477 36.7125C388.777 39.8625 393.165 41.4375 398.64 41.4375C404.115 41.4375 408.502 39.8625 411.802 36.7125ZM405.727 13.3125C407.227 14.6625 407.977 16.425 407.977 18.6C407.977 21.9 406.402 24.15 403.252 25.35L408.09 35.25H403.702L399.427 26.1375H394.477V35.25H390.427V11.2875H399.99C402.315 11.2875 404.227 11.9625 405.727 13.3125ZM402.577 21.8625C403.627 21.1875 404.152 20.1375 404.152 18.7125C404.152 17.5875 403.777 16.6875 403.027 16.0125C402.277 15.3375 401.227 15 399.877 15H394.477V22.875H398.752C400.252 22.875 401.527 22.5375 402.577 21.8625Z" fill="#17183B"/>
<path d="M248.811 33.1125V7.125H259.723V69H248.811V43.125H218.886V69H207.861V7.125H218.886V33.1125H248.811ZM310.654 69.1125H303.229L301.879 65.9625C299.029 67.3125 296.592 68.325 294.567 69C292.617 69.675 290.367 70.0125 287.817 70.0125C281.292 70.0125 277.017 68.1375 274.992 64.3875C273.042 60.5625 272.067 55.9125 272.067 50.4375V25.8H282.754V51.9C282.754 54.225 283.317 56.2875 284.442 58.0875C285.567 59.8875 287.629 60.7875 290.629 60.7875C293.929 60.7875 297.079 59.925 300.079 58.2V25.8H310.654V69.1125ZM322.136 69V7.125H332.936V26.925C335.636 25.725 339.049 25.125 343.174 25.125C346.624 25.125 349.924 25.875 353.074 27.375C356.299 28.875 358.961 31.3125 361.061 34.6875C363.161 37.9875 364.211 42.2625 364.211 47.5125C364.211 54.4875 362.261 60 358.361 64.05C354.536 68.025 349.136 70.0125 342.161 70.0125C338.336 70.0125 334.511 68.8875 330.686 66.6375L329.786 69H322.136ZM353.186 48.075C353.186 38.4 349.024 33.5625 340.699 33.5625C337.774 33.5625 335.186 34.05 332.936 35.025V59.4375C335.036 60.8625 337.511 61.575 340.361 61.575C344.186 61.575 347.261 60.525 349.586 58.425C351.986 56.25 353.186 52.8 353.186 48.075Z" fill="#3AA39F"/>
</svg>
