<svg width="79" height="79" viewBox="0 0 79 79" fill="none" xmlns="http://www.w3.org/2000/svg">
<path fill-rule="evenodd" clip-rule="evenodd" d="M31.315 0.855067C30.5014 1.40641 29.5589 3.11409 29.1761 4.73027C28.0075 9.66653 29.1947 18.0369 32.3587 27.1669C32.9091 28.7555 33.3335 30.0598 33.3019 30.0657C33.27 30.0716 32.4939 29.3619 31.5772 28.489C23.4778 20.7769 15.1297 15.8903 9.8897 15.795C6.93621 15.741 5.65972 17.5987 6.76902 20.3367C8.73674 25.1944 16.2912 31.2361 26.394 36.0324C27.5375 36.5753 28.4782 37.0455 28.4841 37.0773C28.49 37.1089 27.1203 37.1803 25.4401 37.236C13.2856 37.6383 3.69928 40.5038 1.09587 44.513C-0.90384 47.5926 2.33518 49.8733 8.95157 50.0449C13.5628 50.1646 22.6068 48.2537 28.866 45.8372C29.5036 45.5911 30.0316 45.4228 30.0391 45.4632C30.0466 45.5037 29.3386 46.2869 28.4654 47.2037C20.7539 55.3033 15.8678 63.6518 15.7725 68.8921C15.7186 71.8457 17.5763 73.1223 20.314 72.013C25.1785 70.0424 31.2271 62.4795 36.0101 52.3871C36.5521 51.2433 37.0286 50.3017 37.069 50.2942C37.1095 50.2867 37.1417 50.8397 37.1406 51.5235C37.1289 58.2333 38.5877 67.3616 40.3526 71.6237C42.2464 76.1969 44.5094 78.593 46.5742 78.2101C48.6389 77.8273 49.8924 74.7791 50.0207 69.8309C50.1402 65.2195 48.2293 56.175 45.8128 49.9154C45.5666 49.2775 45.3983 48.7497 45.4388 48.7422C45.4793 48.7347 46.2616 49.4429 47.1777 50.3163C53.5469 56.3883 60.6046 61.0674 65.4476 62.4284C69.484 63.5629 71.8218 63.0208 72.3022 60.839C73.2632 56.4744 64.5005 48.5351 52.3624 42.7726C51.2186 42.2297 50.2769 41.7525 50.2694 41.712C50.2619 41.6715 50.8149 41.6394 51.4986 41.6405C58.208 41.6523 67.3359 40.1936 71.5976 38.4287C77.7127 35.8963 79.9186 32.6059 76.9477 30.448C73.08 27.6387 63.1036 28.4007 51.613 32.3829C50.0245 32.9333 48.7202 33.3577 48.7144 33.3261C48.7085 33.2942 49.4178 32.5181 50.291 31.6013C58.0025 23.5017 62.8886 15.1532 62.9839 9.91292C63.0378 6.95927 61.1801 5.68268 58.4423 6.79199C53.5849 8.75971 47.5437 16.3144 42.7478 26.4176C42.205 27.5613 41.7349 28.502 41.703 28.5079C41.6714 28.5138 41.6 27.144 41.5443 25.4637C41.2194 15.6529 39.293 7.3981 36.3588 3.24432C34.7315 0.940645 32.6465 -0.0468589 31.315 0.855067Z" fill="#393737"/>
</svg>
