<svg width="36" height="199" viewBox="0 0 36 199" fill="none" xmlns="http://www.w3.org/2000/svg">
<path fill-rule="evenodd" clip-rule="evenodd" d="M16.874 74.0091L16.8283 188.018L16.0259 186.759C14.8655 184.938 11.714 181.883 9.86778 180.789C7.18143 179.198 3.70133 178.132 1.19017 178.132H0V179.198V180.265L1.36537 180.388C9.6602 181.14 15.9989 187.51 16.7359 195.834C16.8351 196.954 16.9169 197.973 16.9177 198.098C16.9188 198.254 17.2541 198.326 17.9827 198.326H19.0462L19.2684 196.493C19.7587 192.447 21.4359 189.06 24.3125 186.306C27.2403 183.503 30.5173 181.984 34.3844 181.636L35.9308 181.497L35.9854 180.449C36.0296 179.603 35.9812 179.378 35.7347 179.284C35.288 179.112 31.5751 179.683 30.2001 180.135C26.0295 181.504 22.3388 184.318 19.9855 187.923L19.1024 189.276V74.638V0H18.0111H16.9197L16.874 74.0091Z" fill="#393737"/>
</svg>
