<svg width="1169" height="1161" viewBox="0 0 1169 1161" fill="none" xmlns="http://www.w3.org/2000/svg">
<path d="M893.319 7.22471L893.482 6.23793L893.319 7.2247C875.02 4.21805 827.286 0.929368 809.439 1.44397L809.41 0.444585L809.439 1.44397C716.758 4.11466 625.797 28.2795 524.718 77.1205C474.256 101.503 409.212 142.464 360.828 180.336C329.041 205.216 284.305 244.426 266.491 263.014L265.769 262.322L266.491 263.014C264.381 265.214 258.381 271.369 253.155 276.693C224.173 306.215 185.643 351.603 161.457 384.713C73.3469 505.333 21.0519 627.464 5.48667 748.843C1.54876 779.545 0.925365 791.689 1.52162 826.13C4.05448 972.507 78.2997 1085.93 202.734 1133.78C237.293 1147.07 269.732 1154.22 310.282 1157.46C342.62 1160.05 356.691 1160.21 384.467 1158.27C476.914 1151.83 574.043 1121.64 673.548 1068.38C702.148 1053.07 715.561 1045.01 747.463 1023.92C817.607 977.564 879.85 923.949 942.039 856.307C960.345 836.396 1003.4 782.585 1019.47 759.536C1102.75 640.073 1149.03 526.564 1164.67 403.542C1168.79 371.163 1167.98 311.417 1163.03 281.469L1164.01 281.305L1163.03 281.469C1152.41 217.298 1131.86 167.425 1098.05 123.631C1051.03 62.7319 977.889 21.1172 893.319 7.22471Z" stroke="#8B7A7B" stroke-width="2"/>
</svg>
