<svg width="1467" height="1392" viewBox="0 0 1467 1392" fill="none" xmlns="http://www.w3.org/2000/svg">
<path d="M1114.49 54.3981L1114.68 53.4119L1114.49 54.3981C1093.09 51.3722 1037.13 48.6969 1016.15 49.6945C907.216 54.8717 799.622 84.627 679.369 142.867C619.332 171.943 541.647 220.335 483.622 264.809C445.505 294.024 391.723 339.946 370.208 361.643C367.661 364.209 360.421 371.394 354.115 377.608C319.14 412.078 272.45 464.931 242.993 503.399C135.684 643.534 70.3784 784.586 48.2292 923.943C42.6257 959.192 41.5062 973.117 41.108 1012.54C39.4146 1180.12 122.995 1308.35 267.647 1360.33C307.817 1374.76 345.694 1382.2 393.217 1385C431.11 1387.22 447.636 1387.08 480.321 1384.22C589.099 1374.73 704.127 1337.94 822.672 1274.68C856.745 1256.5 872.755 1246.95 910.887 1222.08C994.735 1167.39 1069.53 1104.57 1144.72 1025.69C1166.85 1002.47 1219.12 939.87 1238.72 913.108C1340.32 774.408 1398.29 643.366 1420.59 502.128C1426.45 464.95 1427.41 396.549 1422.54 362.359C1412.12 289.111 1389.58 232.454 1351.26 183.062L1352.07 182.43L1351.26 183.062C1297.97 114.374 1213.38 68.3779 1114.49 54.3981Z" stroke="#8B7A7B" stroke-width="2"/>
<path fill-rule="evenodd" clip-rule="evenodd" d="M696.149 101.394C695.276 101.818 694.265 103.131 693.854 104.374C692.6 108.169 693.874 114.606 697.269 121.627C697.859 122.848 698.315 123.851 698.281 123.856C698.246 123.86 697.414 123.315 696.43 122.643C687.741 116.713 678.784 112.955 673.162 112.882C669.993 112.841 668.624 114.269 669.814 116.375C671.925 120.11 680.03 124.756 690.869 128.444C692.096 128.862 693.105 129.223 693.112 129.248C693.118 129.272 691.649 129.327 689.846 129.37C676.806 129.679 666.521 131.883 663.727 134.966C661.582 137.334 665.057 139.088 672.156 139.22C677.103 139.312 686.806 137.842 693.521 135.984C694.205 135.795 694.772 135.665 694.78 135.696C694.788 135.727 694.028 136.33 693.092 137.035C684.818 143.263 679.576 149.683 679.474 153.713C679.416 155.984 681.409 156.966 684.346 156.112C689.565 154.597 696.055 148.781 701.186 141.021C701.768 140.141 702.279 139.417 702.322 139.411C702.366 139.405 702.4 139.831 702.399 140.356C702.387 145.516 703.952 152.536 705.845 155.813C707.877 159.33 710.305 161.172 712.52 160.878C714.735 160.584 716.08 158.24 716.218 154.435C716.346 150.888 714.296 143.933 711.703 139.12C711.439 138.629 711.259 138.224 711.302 138.218C711.346 138.212 712.185 138.757 713.168 139.428C720.001 144.097 727.573 147.696 732.769 148.742C737.1 149.615 739.608 149.198 740.123 147.52C741.154 144.164 731.753 138.058 718.73 133.627C717.503 133.21 716.493 132.843 716.485 132.812C716.477 132.781 717.07 132.756 717.804 132.757C725.002 132.766 734.795 131.644 739.367 130.287C745.928 128.34 748.295 125.809 745.107 124.15C740.958 121.99 730.254 122.576 717.926 125.638C716.222 126.061 714.823 126.387 714.816 126.363C714.81 126.339 715.571 125.742 716.508 125.037C724.781 118.808 730.024 112.389 730.126 108.359C730.184 106.088 728.191 105.106 725.253 105.959C720.042 107.472 713.56 113.282 708.415 121.051C707.833 121.93 707.328 122.653 707.294 122.658C707.26 122.663 707.184 121.609 707.124 120.317C706.775 112.773 704.708 106.425 701.56 103.231C699.814 101.459 697.578 100.7 696.149 101.394Z" fill="#393737"/>
</svg>
