<svg width="1157" height="1125" viewBox="0 0 1157 1125" fill="none" xmlns="http://www.w3.org/2000/svg">
<path d="M345.679 469.985L344.864 469.405L345.679 469.985C343.306 473.321 336.558 482.663 330.681 490.744C298.075 535.579 254.548 604.324 227.083 654.365C127.041 836.643 66.1356 1020.15 45.4774 1201.49C40.251 1247.36 39.2061 1265.5 38.8348 1316.8C37.2544 1535.01 115.282 1701.79 250.012 1769.33C287.421 1788.09 322.687 1797.76 366.941 1801.38C402.241 1804.28 417.622 1804.09 448.062 1800.38C549.384 1788.04 656.564 1740.22 767.057 1657.96C798.814 1634.31 813.737 1621.9 849.279 1589.56C927.435 1518.43 997.163 1436.73 1067.25 1334.14C1087.89 1303.93 1136.62 1222.51 1154.89 1187.69C1249.62 1007.28 1303.68 836.787 1324.47 653.007C1329.95 604.606 1330.84 515.598 1326.3 471.079L1327.29 470.978L1326.3 471.079C1316.57 375.746 1295.54 301.999 1259.8 237.723C1210.11 148.348 1131.28 88.596 1039.22 70.4394C1029.28 68.4797 1011.29 66.6254 993.286 65.4244C975.284 64.2232 957.384 63.6822 947.647 64.3282C846.184 71.056 745.938 109.724 633.859 185.458C577.905 223.265 505.496 286.196 451.407 344.038C415.877 382.031 365.742 441.757 345.679 469.985Z" stroke="#8B7A7B" stroke-width="2"/>
<path fill-rule="evenodd" clip-rule="evenodd" d="M649.315 131.855C648.501 132.406 647.559 134.114 647.176 135.73C646.007 140.667 647.195 149.037 650.359 158.167C650.909 159.756 651.334 161.06 651.302 161.066C651.27 161.072 650.494 160.362 649.577 159.489C641.478 151.777 633.13 146.89 627.89 146.795C624.936 146.741 623.66 148.599 624.769 151.337C626.737 156.194 634.291 162.236 644.394 167.032C645.538 167.575 646.478 168.045 646.484 168.077C646.49 168.109 645.12 168.18 643.44 168.236C631.286 168.638 621.699 171.504 619.096 175.513C617.096 178.593 620.335 180.873 626.952 181.045C631.563 181.165 640.607 179.254 646.866 176.837C647.504 176.591 648.032 176.423 648.039 176.463C648.047 176.504 647.339 177.287 646.465 178.204C638.754 186.303 633.868 194.652 633.773 199.892C633.719 202.846 635.576 204.122 638.314 203.013C643.179 201.042 649.227 193.48 654.01 183.387C654.552 182.243 655.029 181.302 655.069 181.294C655.109 181.287 655.142 181.84 655.141 182.523C655.129 189.233 656.588 198.362 658.353 202.624C660.246 207.197 662.509 209.593 664.574 209.21C666.639 208.827 667.892 205.779 668.021 200.831C668.14 196.219 666.229 187.175 663.813 180.915C663.567 180.278 663.398 179.75 663.439 179.742C663.479 179.735 664.262 180.443 665.178 181.316C671.547 187.388 678.605 192.067 683.448 193.428C687.484 194.563 689.822 194.021 690.302 191.839C691.263 187.474 682.5 179.535 670.362 173.773C669.219 173.23 668.277 172.752 668.269 172.712C668.262 172.672 668.815 172.639 669.499 172.641C676.208 172.652 685.336 171.194 689.598 169.429C695.713 166.896 697.919 163.606 694.948 161.448C691.08 158.639 681.104 159.401 669.613 163.383C668.024 163.933 666.72 164.358 666.714 164.326C666.708 164.294 667.418 163.518 668.291 162.601C676.002 154.502 680.889 146.153 680.984 140.913C681.038 137.959 679.18 136.683 676.442 137.792C671.585 139.76 665.544 147.314 660.748 157.418C660.205 158.561 659.735 159.502 659.703 159.508C659.671 159.514 659.6 158.144 659.544 156.464C659.219 146.653 657.293 138.398 654.359 134.244C652.732 131.941 650.647 130.953 649.315 131.855Z" fill="#393737"/>
</svg>
